<?xml version="1.0" encoding="utf-8"?>
<!-- Generator: Adobe Illustrator 15.1.0, SVG Export Plug-In . SVG Version: 6.00 Build 0)  -->
<!DOCTYPE svg PUBLIC "-//W3C//DTD SVG 1.1//EN" "http://www.w3.org/Graphics/SVG/1.1/DTD/svg11.dtd">
<svg version="1.1" id="Calque_1" xmlns="http://www.w3.org/2000/svg" xmlns:xlink="http://www.w3.org/1999/xlink" x="0px" y="0px"
	 width="595.279px" height="841.89px" viewBox="0 0 595.279 841.89" enable-background="new 0 0 595.279 841.89"
	 xml:space="preserve">
<g>
	
		<rect x="200.375" y="426.465" transform="matrix(-0.9973 0.0738 -0.0738 -0.9973 455.1806 840.6905)" fill="#F2E3DD" width="23.375" height="4.575"/>
	<path fill="#422760" d="M137.697,410.184l21.75,124.011c0,0,3.664,1.75,6.582-1.75L143.87,408.696L137.697,410.184z"/>
	<path fill="#ED6868" d="M236.8,450.91c0,0,6.146,3.928,11.896-1.52l-4.248-8.195l-10.896-3L236.8,450.91z"/>
	<path fill="#ED6868" d="M192.972,455.07c0,0-7.45,3.6-14.362-2.514v-3.166l13.362-3.695L192.972,455.07z"/>
	
		<ellipse transform="matrix(0.503 0.8643 -0.8643 0.503 525.4161 21.0089)" fill="#FEEEE7" cx="244.441" cy="467.345" rx="8.072" ry="6.625"/>
	<path fill="#422760" d="M237.572,455.07c0,0,9.125,16.625,12.625,31c0,0-18.125,9.5-66,7.75c0,0,0-14.5,8.5-32.5L237.572,455.07z"
		/>
	<path fill="#FEEEE7" d="M233.831,418.771c0.092-0.078,0.184-0.154,0.273-0.233c0.168-0.144,0.334-0.298,0.502-0.446
		c2.151-1.965,4.024-4.154,5.602-6.51c3.566-5.487,6.055-12.975,5.676-23.156c-0.108-0.954-0.248-1.908-0.44-2.859l0.137-0.482
		c-0.666-0.666-4.916-5.025-5.256-7.903c-19.131-4.378-20.621-23.122-20.621-23.122s-1.334,19-24.352,26.666
		c-10.021,4-20.648-2-20.648-2s3.227,8.473-3.309,17.849l0.131,1.427c0,0,1.271,34.456,41.084,29.819
		c2.606-0.303,5.076-0.832,7.418-1.539l0,0C220.028,426.281,227.001,424.498,233.831,418.771z"/>
	<polygon fill="#655EA4" points="174.363,341.113 171.363,314.78 217.361,304.446 225.695,328.446 	"/>
	<polygon fill="#FED78C" points="173.108,330.104 222.238,318.489 217.361,304.446 171.363,314.78 	"/>
	<polyline fill="#422760" points="145.697,365.446 271.197,335.446 225.695,328.446 174.363,341.113 146.197,365.446 	"/>
	<path fill="#FED78C" d="M236.447,427.195c4.75,0.75,21.5,20.5,21.5,20.5l-9.625,13.625c0,0-5.037-2.125-6.271-2.125
		c0,0,3.271-10.375,3.146-13.5c0,0-5.875-4-10.25-4.375c0,0,1.594,8.084,2.5,13.061c0.043,0.236,0.084,0.469,0.125,0.689
		l-44.875,6.25l-0.502-11.93c-4.5-0.055-34.373,9.43-34.373,9.43l-1.5-6.25l13.375-9.375c0,0,19.86-12.846,28.586-13.25l33.58-2.75
		H236.447"/>
	<circle fill="#010202" cx="235.223" cy="388.905" r="2.206"/>
	<circle fill="#010202" cx="180.814" cy="395.871" r="2.206"/>
	<path fill="#FFFFFF" d="M183.572,406.696l52-6.875c0,0-1.25,16.75-23.125,20.25C190.572,423.57,183.572,406.696,183.572,406.696z"
		/>
	<polygon fill="#F6AA56" points="195.404,430.404 195.572,466.613 202.531,466.613 202.531,429.503 	"/>
	<polygon fill="#F6AA56" points="223.738,426.861 225.738,462.029 232.697,462.029 230.61,426.458 	"/>
	<circle fill="#FFFFFF" cx="198.967" cy="467.341" r="3.562"/>
	<circle fill="#FFFFFF" cx="229.134" cy="462.181" r="3.562"/>
	<path fill="#FFFFFF" stroke="#010202" stroke-miterlimit="10" d="M166.029,360.196"/>
	<path fill="#FFFFFF" stroke="#010202" stroke-miterlimit="10" d="M169.697,443.195"/>
	<path fill="#E85053" d="M164.647,399.821l6.748-3.247c4.545,31.855,28.969,31.406,28.969,31.406v1.748
		c-11.931,1.059-30.666,13.467-30.666,13.467c-11.5-2.875-7.25-20.626-7.25-20.626c-14.375-4.123-9.375-18.748-9.375-18.748
		c5.5-0.5,11.506,3,11.506,3v-6.541"/>
	<path fill="#E85053" d="M226.822,511.945l16.125-5.25c0,0,1.75,10.625-0.625,22l12.25,6.125v1.625l-21.875,1v-2.625
		L226.822,511.945z"/>
	<path fill="#E85053" d="M205.337,510.687l-15.188-2.967c0,0-2.437,9.115,0.434,20.377l-11.973,6.652l0.069,1.623l21.898,0.047
		l-0.113-2.623L205.337,510.687z"/>
	<polygon fill="#FEEEE7" points="192.572,507.72 193.947,494.035 210.322,494.035 205.337,510.687 	"/>
	<polygon fill="#FEEEE7" points="221.161,492.75 229.134,511.193 240.697,507.427 238.284,489.914 	"/>
	
		<ellipse transform="matrix(0.2068 0.9784 -0.9784 0.2068 566.422 215.0651)" fill="#FEEEE7" cx="150.571" cy="456.87" rx="8.072" ry="6.625"/>
	
		<rect x="133.654" y="396.994" transform="matrix(-0.9748 0.2232 -0.2232 -0.9748 365.1662 765.293)" fill="#FED78C" width="11.353" height="12.583"/>
	<path fill="#F6AA56" d="M120.195,396.574c0,0,24.002,8.247,36.127-9.753l-10.051-38.125l-2.699,0.625l7.25,34.875
		c0,0-0.963,2.607-9.265,3.848c-0.159,0.023-0.321,0.047-0.485,0.069l-11.25-36.667l-3.125,0.875l8.875,37.93
		c0,0-5.605,2.428-9.625,0.904l-10.252-34.334l-3.25,0.75L120.195,396.574z"/>
	<path fill="#E85053" d="M243.447,341.696c0,0,3.625,10,15.75,67.5c0,0,3.75-3.5,7.5-5c0,0,5,8-4.5,19.749
		c0,0,11.75,18.25-4.25,23.75c0,0-13.498-15.846-20.519-20.166c0,0-7.75-0.334-15.395,0.473l0.018-2.219
		c0,0,25.979-7.253,23.615-40.216c0,0-4.981-4.876-5.352-7.998c-19.132-4.378-20.621-23.123-20.621-23.123s-1.334,19-24.353,26.667
		c-10.02,4-20.647-2-20.647-2s4.699,12.304-8.666,23.667c-1.355,1.152-1.082,0-1.082,0c-1.25-4.917,1.082-42.584,1.082-42.584
		L243.447,341.696z"/>
</g>
</svg>

