<?xml version="1.0" encoding="utf-8"?>
<!-- Generator: Adobe Illustrator 15.1.0, SVG Export Plug-In . SVG Version: 6.00 Build 0)  -->
<!DOCTYPE svg PUBLIC "-//W3C//DTD SVG 1.1//EN" "http://www.w3.org/Graphics/SVG/1.1/DTD/svg11.dtd">
<svg version="1.1" id="Calque_1" xmlns="http://www.w3.org/2000/svg" xmlns:xlink="http://www.w3.org/1999/xlink" x="0px" y="0px"
	 width="595.28px" height="841.89px" viewBox="0 0 595.28 841.89" enable-background="new 0 0 595.28 841.89" xml:space="preserve">
<g>
	
		<rect x="190.628" y="427.274" transform="matrix(0.9973 -0.0738 0.0738 0.9973 -31.1427 16.0981)" fill="#F2E3DD" width="23.374" height="4.575"/>
	<path fill="#422760" d="M127.961,411.001l21.75,124.011c0,0,3.664,1.75,6.582-1.75l-22.158-123.749L127.961,411.001z"/>
	<path fill="#ED6868" d="M227.065,451.727c0,0,6.146,3.926,11.896-1.52l-4.248-8.195l-10.895-3L227.065,451.727z"/>
	<path fill="#ED6868" d="M183.237,455.887c0,0-7.451,3.598-14.363-2.514v-3.166l13.363-3.695L183.237,455.887z"/>
	
		<ellipse transform="matrix(-0.8643 0.503 -0.503 -0.8643 673.0523 754.7289)" fill="#FEEEE7" cx="234.714" cy="468.158" rx="6.625" ry="8.072"/>
	<path fill="#422760" d="M227.836,455.887c0,0,9.125,16.625,12.625,31c0,0-18.125,9.5-66,7.75c0,0,0-14.5,8.5-32.5L227.836,455.887z
		"/>
	<path fill="#FEEEE7" d="M224.096,419.589c0.092-0.078,0.184-0.154,0.273-0.233c0.168-0.144,0.334-0.298,0.502-0.446
		c2.152-1.965,4.025-4.154,5.602-6.51c3.566-5.487,6.055-12.975,5.676-23.156c-0.109-0.954-0.248-1.908-0.441-2.859l0.137-0.482
		c-0.666-0.666-4.916-5.025-5.256-7.903c-19.131-4.378-20.621-23.122-20.621-23.122s-1.334,19-24.352,26.666
		c-10.02,4-20.648-2-20.648-2s3.227,8.473-3.309,17.849l0.131,1.427c0,0,1.271,34.454,41.084,29.819
		c2.607-0.303,5.076-0.832,7.418-1.539l0,0C210.292,427.098,217.266,425.314,224.096,419.589z"/>
	<polygon fill="#655EA4" points="164.627,341.93 161.627,315.597 207.625,305.263 215.959,329.263 	"/>
	<polygon fill="#FED78C" points="163.372,330.921 212.502,319.306 207.625,305.263 161.627,315.597 	"/>
	<polyline fill="#422760" points="135.961,366.263 261.461,336.263 215.959,329.263 164.627,341.93 136.461,366.263 	"/>
	<path fill="#FED78C" d="M226.711,428.012c4.75,0.75,21.5,20.5,21.5,20.5l-9.625,13.625c0,0-5.037-2.125-6.27-2.125
		c0,0,3.27-10.375,3.145-13.5c0,0-5.875-4-10.25-4.375c0,0,1.594,8.084,2.5,13.059c0.043,0.238,0.084,0.469,0.125,0.691
		l-44.875,6.25l-0.502-11.93c-4.5-0.055-34.373,9.43-34.373,9.43l-1.5-6.25l13.375-9.375c0,0,19.861-12.846,28.586-13.25l33.58-2.75
		H226.711"/>
	<circle fill="#010202" cx="225.488" cy="389.722" r="2.206"/>
	<circle fill="#010202" cx="171.078" cy="396.688" r="2.206"/>
	<path fill="#FFFFFF" d="M173.836,407.513l52-6.875c0,0-1.25,16.75-23.125,20.25C180.836,424.387,173.836,407.513,173.836,407.513z"
		/>
	<polygon fill="#F6AA56" points="185.668,431.221 185.836,467.43 192.795,467.43 192.795,430.32 	"/>
	<polygon fill="#F6AA56" points="214.002,427.678 216.002,462.846 222.961,462.846 220.874,427.275 	"/>
	<circle fill="#FFFFFF" cx="189.232" cy="468.158" r="3.563"/>
	<circle fill="#FFFFFF" cx="219.399" cy="462.998" r="3.562"/>
	<path fill="#FFFFFF" stroke="#010202" stroke-miterlimit="10" d="M156.293,361.013"/>
	<path fill="#FFFFFF" stroke="#010202" stroke-miterlimit="10" d="M159.961,444.012"/>
	<path fill="#E85053" d="M154.911,400.638l6.748-3.247c4.545,31.855,28.969,31.406,28.969,31.406v1.748
		c-11.93,1.059-30.666,13.467-30.666,13.467c-11.5-2.875-7.25-20.625-7.25-20.625c-14.375-4.124-9.375-18.749-9.375-18.749
		c5.5-0.5,11.506,3,11.506,3v-6.541"/>
	<path fill="#E85053" d="M217.086,512.762l16.125-5.25c0,0,1.75,10.625-0.625,22l12.25,6.125v1.625l-21.875,1v-2.625
		L217.086,512.762z"/>
	<path fill="#E85053" d="M195.602,511.504l-15.189-2.967c0,0-2.436,9.115,0.434,20.377l-11.973,6.652l0.07,1.623l21.898,0.047
		l-0.113-2.623L195.602,511.504z"/>
	<polygon fill="#FEEEE7" points="182.836,508.537 184.211,494.852 200.586,494.852 195.602,511.504 	"/>
	<polygon fill="#FEEEE7" points="211.426,493.566 219.399,512.01 230.961,508.244 228.549,490.73 	"/>
	
		<ellipse transform="matrix(-0.9784 0.2068 -0.2068 -0.9784 373.2756 876.3741)" fill="#FEEEE7" cx="140.83" cy="457.698" rx="6.625" ry="8.072"/>
	
		<rect x="123.922" y="397.796" transform="matrix(0.9748 -0.2232 0.2232 0.9748 -86.9301 39.1247)" fill="#FED78C" width="11.353" height="12.582"/>
	<path fill="#F6AA56" d="M110.459,397.391c0,0,24.002,8.247,36.127-9.753l-10.051-38.125l-2.699,0.625l7.25,34.875
		c0,0-0.963,2.607-9.264,3.848c-0.16,0.023-0.322,0.047-0.486,0.069l-11.25-36.667l-3.125,0.875l8.875,37.93
		c0,0-5.605,2.428-9.625,0.904l-10.252-34.334l-3.25,0.75L110.459,397.391z"/>
	<path fill="#E85053" d="M233.711,342.513c0,0,3.625,10,15.75,67.5c0,0,3.75-3.5,7.5-5c0,0,5,8-4.5,19.749
		c0,0,11.75,18.25-4.25,23.75c0,0-13.498-15.846-20.518-20.166c0,0-7.75-0.334-15.395,0.471l0.018-2.217
		c0,0,25.979-7.253,23.615-40.216c0,0-4.982-4.876-5.352-7.998c-19.131-4.378-20.621-23.123-20.621-23.123s-1.334,19-24.352,26.667
		c-10.02,4-20.648-2-20.648-2s4.699,12.304-8.666,23.667c-1.355,1.152-1.082,0-1.082,0c-1.25-4.917,1.082-42.584,1.082-42.584
		L233.711,342.513z"/>
</g>
</svg>
