<?xml version="1.0" encoding="utf-8"?>
<!-- Generator: Adobe Illustrator 15.1.0, SVG Export Plug-In . SVG Version: 6.00 Build 0)  -->
<!DOCTYPE svg PUBLIC "-//W3C//DTD SVG 1.1//EN" "http://www.w3.org/Graphics/SVG/1.1/DTD/svg11.dtd">
<svg version="1.1" id="Calque_1" xmlns="http://www.w3.org/2000/svg" xmlns:xlink="http://www.w3.org/1999/xlink" x="0px" y="0px"
	 width="595.279px" height="841.89px" viewBox="0 0 595.279 841.89" enable-background="new 0 0 595.279 841.89"
	 xml:space="preserve">
<path fill="#FFFFFF" stroke="#010202" stroke-miterlimit="10" d="M137.81,411.398l21.75,124.012c0,0,3.664,1.75,6.582-1.75
	l-22.158-123.75L137.81,411.398z"/>
<path fill="#FFFFFF" stroke="#010202" stroke-miterlimit="10" d="M236.913,452.123c0,0,6.146,3.926,11.896-1.518l-4.246-8.195
	l-10.896-3L236.913,452.123z"/>
<path fill="#FFFFFF" stroke="#010202" stroke-miterlimit="10" d="M193.086,456.285c0,0-7.451,3.598-14.364-2.514v-3.166
	l13.364-3.695L193.086,456.285z"/>
<ellipse transform="matrix(0.5029 0.8643 -0.8643 0.5029 526.5308 21.5047)" fill="#FFFFFF" stroke="#010202" stroke-miterlimit="10" cx="244.569" cy="468.535" rx="8.072" ry="6.625"/>
<path fill="#FFFFFF" stroke="#010202" stroke-miterlimit="10" d="M237.684,456.285c0,0,9.125,16.625,12.625,31
	c0,0-18.125,9.5-66,7.75c0,0,0-14.5,8.5-32.5L237.684,456.285z"/>
<path fill="#FFFFFF" stroke="#010202" stroke-miterlimit="10" d="M233.946,419.986c0.091-0.078,0.185-0.154,0.273-0.233
	c0.168-0.144,0.334-0.298,0.5-0.446c2.152-1.965,4.027-4.154,5.602-6.51c3.568-5.487,6.056-12.975,5.679-23.156
	c-0.111-0.954-0.25-1.908-0.441-2.859l0.135-0.483c-0.664-0.666-4.916-5.025-5.256-7.903c-19.13-4.377-20.62-23.123-20.62-23.123
	s-1.334,19-24.353,26.667c-10.02,4-20.647-2-20.647-2s3.227,8.472-3.31,17.848l0.131,1.427c0,0,1.271,34.457,41.085,29.822
	c2.606-0.303,5.076-0.832,7.417-1.539l0,0C220.14,427.496,227.114,425.71,233.946,419.986z"/>
<polygon fill="#FFFFFF" stroke="#010202" stroke-miterlimit="10" points="174.475,341.327 171.475,314.993 217.475,304.66 
	225.809,328.66 "/>
<polygon fill="#FFFFFF" stroke="#010202" stroke-miterlimit="10" points="173.221,330.318 222.351,318.703 217.475,304.66 
	171.475,314.993 "/>
<path fill="none" stroke="#010202" stroke-miterlimit="10" d="M240.413,378.782c0,0,2.396,9.211,11.396,10.544"/>
<polyline fill="#FFFFFF" stroke="#010202" stroke-miterlimit="10" points="145.81,365.66 271.309,335.66 225.809,328.66 
	174.475,341.327 146.31,365.66 "/>
<path fill="#FFFFFF" stroke="#010202" stroke-miterlimit="10" d="M236.559,428.41c4.75,0.75,21.5,20.5,21.5,20.5l-9.625,13.625
	c0,0-5.037-2.125-6.268-2.125c0,0,3.268-10.375,3.143-13.5c0,0-5.875-4-10.25-4.375c0,0,1.594,8.082,2.5,13.057
	c0.043,0.238,0.086,0.473,0.125,0.693l-44.875,6.25l-0.501-11.93c-4.501-0.057-34.374,9.43-34.374,9.43l-1.5-6.25l13.375-9.375
	c0,0,22.211-13.127,28.586-13.252l33.582-2.748H236.559"/>
<circle fill="#010202" cx="184.946" cy="395.339" r="3.875"/>
<circle fill="#010202" cx="233.667" cy="390.656" r="3.875"/>
<path fill="none" stroke="#010202" stroke-miterlimit="10" d="M183.685,407.91l52-6.875c0,0-1.25,16.75-23.125,20.25
	C190.685,424.785,183.685,407.91,183.685,407.91z"/>
<polygon fill="#FFFFFF" stroke="#010202" stroke-miterlimit="10" points="195.518,432.15 195.685,467.826 202.644,467.826 
	202.644,430.718 "/>
<polygon fill="#FFFFFF" stroke="#010202" stroke-miterlimit="10" points="223.851,428.076 225.851,463.244 232.809,463.244 
	230.723,427.671 "/>
<circle fill="#FFFFFF" stroke="#010202" stroke-miterlimit="10" cx="199.081" cy="468.557" r="3.563"/>
<circle fill="#FFFFFF" stroke="#010202" stroke-miterlimit="10" cx="229.247" cy="463.395" r="3.562"/>
<path fill="#FFFFFF" stroke="#010202" stroke-miterlimit="10" d="M166.142,361.41"/>
<path fill="#FFFFFF" stroke="#010202" stroke-miterlimit="10" d="M169.81,444.41"/>
<path fill="#FFFFFF" stroke="#010202" stroke-miterlimit="10" d="M164.759,401.035l6.748-3.247
	c4.545,31.854,28.97,31.407,28.97,31.407v1.75c-9.333-0.18-30.667,13.467-30.667,13.467c-11.5-2.875-7.25-20.625-7.25-20.625
	c-14.375-4.125-9.375-18.75-9.375-18.75c5.5-0.5,11.507,3,11.507,3v-6.541"/>
<path fill="#FFFFFF" stroke="#010202" stroke-miterlimit="10" d="M243.559,342.91c0,0,3.625,10,15.75,67.5c0,0,3.75-3.5,7.5-5
	c0,0,5,8-4.5,19.75c0,0,11.75,18.25-4.25,23.75c0,0-15.75-19.676-21.5-21.275c0,0-8.074-0.311-14.416,1.109l0.022-1.748
	c0,0,25.977-7.251,23.613-40.214c0,0-4.981-4.876-5.352-7.999c-19.13-4.377-20.62-23.123-20.62-23.123s-1.334,19-24.353,26.667
	c-10.02,4-20.648-2-20.648-2s4.7,12.304-8.667,23.667c-1.354,1.152-1.082,0-1.082,0c-1.25-4.917,1.082-42.584,1.082-42.584
	L243.559,342.91z"/>
<path fill="#FFFFFF" stroke="#010202" stroke-miterlimit="10" d="M226.935,513.16l16.125-5.25c0,0,1.75,10.625-0.625,22l12.25,6.125
	v1.625l-21.875,1v-2.625L226.935,513.16z"/>
<path fill="#FFFFFF" stroke="#010202" stroke-miterlimit="10" d="M205.45,511.9l-15.189-2.965c0,0-2.436,9.115,0.433,20.375
	l-11.972,6.652l0.071,1.625l21.897,0.045l-0.113-2.623L205.45,511.9z"/>
<polygon fill="#FFFFFF" stroke="#010202" stroke-miterlimit="10" points="192.685,508.935 194.06,495.25 210.435,495.25 
	205.45,511.9 "/>
<polygon fill="#FFFFFF" stroke="#010202" stroke-miterlimit="10" points="221.274,493.964 229.247,512.406 240.809,508.642 
	238.397,491.126 "/>
<ellipse transform="matrix(0.2067 0.9784 -0.9784 0.2067 567.7179 215.9545)" fill="#FFFFFF" stroke="#010202" stroke-miterlimit="10" cx="150.682" cy="458.083" rx="8.073" ry="6.625"/>
<rect x="133.76" y="398.213" transform="matrix(-0.9748 0.2232 -0.2232 -0.9748 365.6323 767.686)" fill="#FFFFFF" stroke="#010202" stroke-miterlimit="10" width="11.353" height="12.582"/>
<path fill="#FFFFFF" stroke="#010202" stroke-miterlimit="10" d="M120.31,397.788c0,0,24,8.247,36.125-9.753l-10.051-38.125
	l-2.699,0.625l7.25,34.875c0,0-0.963,2.607-9.264,3.848c-0.159,0.023-0.321,0.046-0.486,0.069l-11.25-36.667l-3.125,0.875
	l8.875,37.93c0,0-2.625,2.987-9.625,0.904l-10.25-34.334l-3.25,0.75L120.31,397.788z"/>
</svg>
